<svg width="48.380371" height="55.735352" viewBox="0 0 48.3804 55.7354" fill="none" xmlns="http://www.w3.org/2000/svg" xmlns:xlink="http://www.w3.org/1999/xlink">
	<desc>
			Created with Pixso.
	</desc>
	<defs/>
	<path id="Vector" d="M32.9932 3.4834L32.9932 52.2524C32.9932 53.8557 31.6777 55.1553 30.0552 55.1553L3.52539 55.1553C1.90283 55.1553 0.587402 53.8557 0.587402 52.2524L0.587402 3.4834C0.587402 1.88013 1.90283 0.580566 3.52539 0.580566L30.0552 0.580566C31.6777 0.580566 32.9932 1.88037 32.9932 3.4834Z" fill="#FFFFFF" fill-opacity="1.000000" fill-rule="nonzero"/>
	<path id="Vector" d="M24.9639 0.581055L24.9639 2.89893C24.9639 4.1814 23.9116 5.22119 22.6133 5.22119L10.9668 5.22119C9.66846 5.22119 8.61621 4.1814 8.61621 2.89893L8.61621 0.581055L24.9639 0.581055Z" fill="#38BFF2" fill-opacity="1.000000" fill-rule="nonzero"/>
	<path id="Vector" d="M47.7935 19.2002L47.7935 37.6973C47.7935 38.98 46.7407 40.0195 45.4429 40.0195L16.79 40.0195L16.79 16.8779L45.4429 16.8779C46.7407 16.8779 47.7935 17.9177 47.7935 19.2002Z" fill="#38BFF2" fill-opacity="1.000000" fill-rule="nonzero"/>
	<path id="Vector" d="M16.79 21.624L47.7935 21.624L47.7935 27.3779L16.79 27.3779L16.79 21.624Z" fill="#D7E9FF" fill-opacity="1.000000" fill-rule="nonzero"/>
	<path id="Vector" d="M9.04297 51.0908C8.71875 51.0908 8.45557 51.3506 8.45557 51.6716C8.45557 51.9927 8.71875 52.2524 9.04297 52.2524L24.5371 52.2524C24.8613 52.2524 25.1245 51.9927 25.1245 51.6716C25.1245 51.3506 24.8613 51.0908 24.5371 51.0908L9.04297 51.0908Z" fill="#1A2E35" fill-opacity="1.000000" fill-rule="nonzero"/>
	<path id="Vector" d="M21.0522 3.48193L22.1016 3.48193C22.4263 3.48193 22.6895 3.22217 22.6895 2.90112C22.6895 2.58008 22.4263 2.32031 22.1016 2.32031L21.0522 2.32031C20.728 2.32031 20.4648 2.58008 20.4648 2.90112C20.4648 3.22217 20.728 3.48193 21.0522 3.48193Z" fill="#1A2E35" fill-opacity="1.000000" fill-rule="nonzero"/>
	<path id="Vector" d="M11.4785 3.48193L18.2983 3.48193C18.623 3.48193 18.8862 3.22217 18.8862 2.90112C18.8862 2.58008 18.623 2.32031 18.2983 2.32031L11.4785 2.32031C11.1543 2.32031 10.8911 2.58008 10.8911 2.90112C10.8911 3.22217 11.1543 3.48193 11.4785 3.48193Z" fill="#1A2E35" fill-opacity="1.000000" fill-rule="nonzero"/>
	<path id="Vector" d="M45.4424 16.2969L33.5811 16.2969L33.5811 3.4834C33.5811 1.5625 31.9995 0 30.0552 0C24.2773 0 9.30713 0 3.52588 0C1.58154 0 0 1.5625 0 3.4834L0 52.252C0 54.1729 1.58154 55.7354 3.52588 55.7354L30.0552 55.7354C31.9995 55.7354 33.5811 54.1729 33.5811 52.252L33.5811 40.5996L45.4424 40.5996C47.0625 40.5996 48.3804 39.2974 48.3804 37.6968C48.3804 30.9465 48.3804 25.8474 48.3804 19.2C48.3809 17.5994 47.0625 16.2969 45.4424 16.2969ZM47.2056 19.2L47.2056 21.0432L17.3774 21.0432L17.3774 17.4583L45.4424 17.4583C46.4146 17.4583 47.2056 18.2395 47.2056 19.2ZM47.2056 26.7974L17.3774 26.7974L17.3774 22.2043L47.2056 22.2043L47.2056 26.7974ZM24.3765 1.16113L24.3765 2.89844C24.3765 3.85889 23.5859 4.64014 22.6138 4.64014L10.9668 4.64014C9.99463 4.64014 9.2041 3.85889 9.2041 2.89844L9.2041 1.16113L24.3765 1.16113ZM32.4058 52.252C32.4058 53.5327 31.3511 54.5742 30.0552 54.5742L3.52588 54.5742C2.22949 54.5742 1.17529 53.5327 1.17529 52.252L1.17529 3.4834C1.17529 2.20264 2.22949 1.16113 3.52588 1.16113L8.02881 1.16113L8.02881 2.89844C8.02881 4.49902 9.34668 5.80127 10.9668 5.80127L22.6138 5.80127C24.2334 5.80127 25.5518 4.49902 25.5518 2.89844L25.5518 1.16113L30.0552 1.16113C31.3511 1.16113 32.4053 2.20264 32.4053 3.4834L32.4053 16.2969L17.3774 16.2969L17.3774 13.6782C17.3774 13.3572 17.1143 13.0977 16.7896 13.0977C16.4653 13.0977 16.2021 13.3574 16.2021 13.6782L16.2021 43.2122C16.2021 43.5332 16.4653 43.7927 16.7896 43.7927C17.1143 43.7927 17.3774 43.533 17.3774 43.2122L17.3774 40.5996L32.4053 40.5996L32.4053 52.252L32.4058 52.252ZM45.4424 39.4385L17.3774 39.4385L17.3774 32.3423L36.8052 32.3423C37.1294 32.3423 37.3926 32.0825 37.3926 31.7617C37.3926 31.4407 37.1294 31.1812 36.8052 31.1812L17.3774 31.1812L17.3774 27.9585L47.2056 27.9585L47.2056 37.6968C47.2056 38.6572 46.4146 39.4385 45.4424 39.4385Z" fill="#1A2E35" fill-opacity="1.000000" fill-rule="nonzero"/>
	<path id="Vector" d="M36.8052 35.0547L35.1216 35.0547C34.7974 35.0547 34.5342 35.3145 34.5342 35.6355C34.5342 35.9565 34.7974 36.2163 35.1216 36.2163L36.8052 36.2163C37.1294 36.2163 37.3926 35.9565 37.3926 35.6355C37.3926 35.3145 37.1294 35.0547 36.8052 35.0547Z" fill="#1A2E35" fill-opacity="1.000000" fill-rule="nonzero"/>
	<path id="Vector" d="M31.9932 35.0547L30.3096 35.0547C29.9854 35.0547 29.7222 35.3145 29.7222 35.6355C29.7222 35.9565 29.9854 36.2163 30.3096 36.2163L31.9932 36.2163C32.3179 36.2163 32.5806 35.9565 32.5806 35.6355C32.5806 35.3145 32.3179 35.0547 31.9932 35.0547Z" fill="#1A2E35" fill-opacity="1.000000" fill-rule="nonzero"/>
	<path id="Vector" d="M27.1812 35.0547L25.4976 35.0547C25.1733 35.0547 24.9102 35.3145 24.9102 35.6355C24.9102 35.9565 25.1733 36.2163 25.4976 36.2163L27.1812 36.2163C27.5054 36.2163 27.7686 35.9565 27.7686 35.6355C27.7686 35.3145 27.5054 35.0547 27.1812 35.0547Z" fill="#1A2E35" fill-opacity="1.000000" fill-rule="nonzero"/>
	<path id="Vector" d="M22.3687 35.0547L20.6851 35.0547C20.3608 35.0547 20.0977 35.3145 20.0977 35.6355C20.0977 35.9565 20.3608 36.2163 20.6851 36.2163L22.3687 36.2163C22.6934 36.2163 22.9561 35.9565 22.9561 35.6355C22.9565 35.3145 22.6934 35.0547 22.3687 35.0547Z" fill="#1A2E35" fill-opacity="1.000000" fill-rule="nonzero"/>
</svg>
