<svg width="59.000000" height="59.000000" viewBox="0 0 59 59" fill="none" xmlns="http://www.w3.org/2000/svg" xmlns:xlink="http://www.w3.org/1999/xlink">
	<desc>
			Created with Pixso.
	</desc>
	<defs>
		<clipPath id="clip49_20">
			<rect id="svg-gobbler (5) 2" width="59.000000" height="59.000000" fill="white" fill-opacity="0"/>
		</clipPath>
	</defs>
	<rect id="svg-gobbler (5) 2" width="59.000000" height="59.000000" fill="#FFFFFF" fill-opacity="0"/>
	<g clip-path="url(#clip49_20)">
		<path id="Vector" d="M49.9155 9.07788C61.1943 20.3567 61.1943 38.6433 49.9155 49.9221C38.6367 61.2007 20.3501 61.2007 9.07129 49.9221C-2.20752 38.6433 -2.20752 20.3567 9.07129 9.07788C20.3501 -2.20068 38.6367 -2.20068 49.9155 9.07788Z" fill="#38BFF2" fill-opacity="1.000000" fill-rule="evenodd"/>
		<path id="Vector" d="M52.2393 29.4998C52.2393 42.0586 42.0586 52.2393 29.5 52.2393C16.9409 52.2393 6.76025 42.0586 6.76025 29.4998C6.76025 16.9412 16.9409 6.76025 29.5 6.76025C42.0586 6.76025 52.2393 16.9412 52.2393 29.4998Z" fill="#FFFFFF" fill-opacity="1.000000" fill-rule="evenodd"/>
		<path id="Vector" d="M29.5 0C13.2334 0 0 13.2336 0 29.5C0 45.7664 13.2334 59 29.5 59C45.7666 59 59 45.7664 59 29.5C59 13.2336 45.7666 0 29.5 0ZM29.5 57.7708C13.9116 57.7708 1.229 45.0884 1.229 29.5C1.229 13.9116 13.9116 1.22925 29.5 1.22925C45.0884 1.22925 57.771 13.9116 57.771 29.5C57.771 45.0884 45.0884 57.7708 29.5 57.7708Z" fill="#1A2E35" fill-opacity="1.000000" fill-rule="nonzero"/>
		<path id="Vector" d="M29.5 6.146C16.6226 6.146 6.146 16.6228 6.146 29.5002C6.146 42.3777 16.6226 52.8545 29.5 52.8545C42.3774 52.8545 52.8545 42.3777 52.8545 29.5002C52.8545 16.6228 42.3774 6.146 29.5 6.146ZM29.5 51.6252C17.3003 51.6252 7.375 41.7 7.375 29.5002C7.375 17.3003 17.3003 7.37524 29.5 7.37524C41.7002 7.37524 51.625 17.3003 51.625 29.5002C51.625 41.7 41.7002 51.6252 29.5 51.6252Z" fill="#1A2E35" fill-opacity="1.000000" fill-rule="nonzero"/>
		<path id="Vector" d="M31.9604 16.2151L23.7871 16.2151C23.7764 16.2144 23.7681 16.209 23.7573 16.209C23.418 16.209 23.1426 16.4841 23.1426 16.8235L23.1426 16.8296L23.1426 28.5815L20.856 28.5815C20.5166 28.5815 20.2412 28.8567 20.2412 29.196C20.2412 29.5354 20.5166 29.8108 20.856 29.8108L23.1426 29.8108L23.1426 32.4121L20.856 32.4121C20.5166 32.4121 20.2412 32.6875 20.2412 33.0269C20.2412 33.3662 20.5166 33.6414 20.856 33.6414L23.1426 33.6414L23.1426 42.1768C23.1426 42.5161 23.418 42.7913 23.7573 42.7913C24.0967 42.7913 24.3716 42.5161 24.3716 42.1768L24.3716 33.6414L35.4624 33.6414C35.8018 33.6414 36.0767 33.3662 36.0767 33.0269C36.0767 32.6875 35.8018 32.4121 35.4624 32.4121L24.3721 32.4121L24.3721 29.8108L25.4077 29.8108L31.5303 29.8108C35.2993 29.8108 38.4653 27.0649 38.7373 23.5596C38.7373 23.5593 38.7373 23.5593 38.7373 23.5593C39.0537 19.4846 35.8369 16.2151 31.9604 16.2151ZM37.5122 23.4646L37.5122 23.4641C37.2896 26.334 34.6616 28.5815 31.5303 28.5815L25.4077 28.5815L24.3721 28.5815L24.3721 17.4441L31.9604 17.4441C35.1348 17.4441 37.7715 20.1182 37.5122 23.4646Z" fill="#1A2E35" fill-opacity="1.000000" fill-rule="nonzero"/>
	</g>
</svg>
