<svg width="61.000000" height="61.000000" viewBox="0 0 61 61" fill="none" xmlns="http://www.w3.org/2000/svg" xmlns:xlink="http://www.w3.org/1999/xlink">
	<desc>
			Created with Pixso.
	</desc>
	<defs>
		<clipPath id="clip38_3150">
			<rect id="svg-gobbler 2" width="61.000000" height="61.000000" fill="white" fill-opacity="0"/>
		</clipPath>
	</defs>
	<rect id="svg-gobbler 2" width="61.000000" height="61.000000" fill="#FFFFFF" fill-opacity="0"/>
	<g clip-path="url(#clip38_3150)">
		<path id="Vector" d="M60.3628 3.17749L60.3628 11.3679L0.635742 11.3679L0.635742 3.17749C0.635742 1.77368 1.77344 0.635742 3.17725 0.635742L57.8213 0.635742C59.2251 0.635742 60.3628 1.77368 60.3628 3.17749Z" fill="#38BFF2" fill-opacity="1.000000" fill-rule="nonzero"/>
		<path id="Vector" d="M60.3643 11.3677L60.3643 57.8223C60.3643 59.2266 59.2271 60.364 57.8228 60.364L3.17725 60.364C1.77295 60.364 0.635742 59.2266 0.635742 57.8223L0.635742 11.3677L60.3643 11.3677Z" fill="#FFFFFF" fill-opacity="1.000000" fill-rule="nonzero"/>
		<path id="Vector" d="M55.9165 28.8291L55.9165 17.0862C55.9165 16.3845 55.3472 15.8154 54.6455 15.8154L6.35449 15.8154C5.65234 15.8154 5.0835 16.3845 5.0835 17.0862L5.0835 28.8291C5.0835 29.531 5.65234 30.1001 6.35449 30.1001L54.6455 30.1001C55.3472 30.0999 55.9165 29.531 55.9165 28.8291Z" fill="#38BFF2" fill-opacity="1.000000" fill-rule="nonzero"/>
		<path id="Vector" d="M28.3018 6.00171C28.3018 6.83545 27.626 7.51099 26.7925 7.51099L5.95752 7.51099C5.12402 7.51099 4.44824 6.83545 4.44824 6.00171C4.44824 5.16821 5.12402 4.49268 5.95752 4.49268L26.7925 4.49268C27.626 4.49268 28.3018 5.16821 28.3018 6.00171Z" fill="#FFFFFF" fill-opacity="1.000000" fill-rule="nonzero"/>
		<path id="Vector" d="M56.5508 6.00171C56.5508 6.85962 55.8555 7.55518 54.9976 7.55518C54.1392 7.55518 53.4438 6.85962 53.4438 6.00171C53.4438 5.1438 54.1392 4.44824 54.9976 4.44824C55.8555 4.44824 56.5508 5.1438 56.5508 6.00171Z" fill="#FFFFFF" fill-opacity="1.000000" fill-rule="evenodd"/>
		<path id="Vector" d="M50.3076 6.00171C50.3076 6.85962 49.6123 7.55518 48.7544 7.55518C47.896 7.55518 47.2007 6.85962 47.2007 6.00171C47.2007 5.1438 47.896 4.44824 48.7544 4.44824C49.6123 4.44824 50.3076 5.1438 50.3076 6.00171Z" fill="#FFFFFF" fill-opacity="1.000000" fill-rule="evenodd"/>
		<path id="Vector" d="M44.0645 6.00171C44.0645 6.85962 43.3691 7.55518 42.5112 7.55518C41.6528 7.55518 40.9575 6.85962 40.9575 6.00171C40.9575 5.1438 41.6528 4.44824 42.5112 4.44824C43.3691 4.44824 44.0645 5.1438 44.0645 6.00171Z" fill="#FFFFFF" fill-opacity="1.000000" fill-rule="evenodd"/>
		<path id="Vector" d="M37.4893 43.9773L37.4893 35.8184C37.4893 35.1165 36.9204 34.5474 36.2188 34.5474L24.7812 34.5474C24.0791 34.5474 23.5103 35.1165 23.5103 35.8184L23.5103 43.9773C23.5103 44.6792 24.0791 45.2483 24.7812 45.2483L36.2188 45.2483C36.9204 45.248 37.4893 44.6792 37.4893 43.9773Z" fill="#38BFF2" fill-opacity="1.000000" fill-rule="nonzero"/>
		<path id="Vector" d="M19.0625 43.9773L19.0625 35.8184C19.0625 35.1165 18.4937 34.5474 17.7915 34.5474L6.35449 34.5474C5.65234 34.5474 5.0835 35.1165 5.0835 35.8184L5.0835 43.9773C5.0835 44.6792 5.65234 45.2483 6.35449 45.2483L17.792 45.2483C18.4937 45.248 19.0625 44.6792 19.0625 43.9773Z" fill="#38BFF2" fill-opacity="1.000000" fill-rule="nonzero"/>
		<path id="Vector" d="M55.9165 43.9773L55.9165 35.8184C55.9165 35.1165 55.3477 34.5474 54.646 34.5474L43.2085 34.5474C42.5063 34.5474 41.9375 35.1165 41.9375 35.8184L41.9375 43.9773C41.9375 44.6792 42.5063 45.2483 43.2085 45.2483L54.646 45.2483C55.3477 45.248 55.9165 44.6792 55.9165 43.9773Z" fill="#38BFF2" fill-opacity="1.000000" fill-rule="nonzero"/>
		<path id="Vector" d="M60.9985 3.17749C60.9985 1.42578 59.5732 0.000488281 57.8218 0.000488281L3.17773 0.000488281C1.42578 0.000488281 0.000488281 1.42578 0.000488281 3.17749L0.000488281 57.8228C0.000488281 59.5745 1.42578 60.9998 3.17773 60.9998L57.8228 60.9998C59.5742 60.9998 60.9995 59.5745 60.9995 57.8228C61 57.2288 60.9985 10.1758 60.9985 3.17749ZM1.27148 3.17749C1.27148 2.12622 2.12646 1.27124 3.17773 1.27124L57.8213 1.27124C58.8726 1.27124 59.7275 2.12622 59.7275 3.17749L59.7275 10.7324L1.27148 10.7324L1.27148 3.17749ZM57.8228 59.729L3.17773 59.729C2.12646 59.729 1.27148 58.874 1.27148 57.8228L1.27148 12.0032L59.729 12.0032L59.729 57.8228C59.729 58.874 58.874 59.729 57.8228 59.729Z" fill="#1A2E35" fill-opacity="1.000000" fill-rule="nonzero"/>
		<path id="Vector" d="M54.6455 15.1802L6.35449 15.1802C5.30322 15.1802 4.44824 16.0352 4.44824 17.0864L4.44824 28.8291C4.44824 29.8801 5.30322 30.7354 6.35449 30.7354L54.6455 30.7354C55.6968 30.7354 56.5518 29.8801 56.5518 28.8291L56.5518 17.0864C56.5518 16.0352 55.6968 15.1802 54.6455 15.1802ZM55.2812 28.8291C55.2812 29.1797 54.9961 29.4644 54.6455 29.4644L6.35449 29.4644C6.00391 29.4644 5.71924 29.1794 5.71924 28.8291L5.71924 17.0864C5.71924 16.7358 6.00391 16.4509 6.35449 16.4509L54.6455 16.4509C54.9961 16.4509 55.2812 16.7358 55.2812 17.0864L55.2812 28.8291Z" fill="#1A2E35" fill-opacity="1.000000" fill-rule="nonzero"/>
		<path id="Vector" d="M26.792 3.85742L5.95703 3.85742C4.77441 3.85742 3.8125 4.81934 3.8125 6.00195C3.8125 7.18457 4.77441 8.14648 5.95703 8.14648L26.792 8.14648C27.9746 8.14648 28.9365 7.18457 28.9365 6.00195C28.9365 4.81934 27.9751 3.85742 26.792 3.85742ZM26.792 6.87573L5.95703 6.87573C5.47559 6.87573 5.0835 6.4834 5.0835 6.00195C5.0835 5.52051 5.47559 5.12817 5.95703 5.12817L26.792 5.12817C27.2734 5.12817 27.6655 5.52051 27.6655 6.00195C27.6655 6.4834 27.2734 6.87573 26.792 6.87573Z" fill="#1A2E35" fill-opacity="1.000000" fill-rule="nonzero"/>
		<path id="Vector" d="M54.9966 3.81299C53.79 3.81299 52.8081 4.79541 52.8081 6.0022C52.8081 7.20898 53.79 8.19092 54.9966 8.19092C56.2036 8.19092 57.186 7.20923 57.186 6.0022C57.186 4.79517 56.2036 3.81299 54.9966 3.81299ZM54.9966 6.91992C54.4902 6.91992 54.0791 6.50854 54.0791 6.0022C54.0791 5.49585 54.4902 5.08374 54.9966 5.08374C55.5029 5.08374 55.915 5.49585 55.915 6.0022C55.915 6.50854 55.5029 6.91992 54.9966 6.91992Z" fill="#1A2E35" fill-opacity="1.000000" fill-rule="nonzero"/>
		<path id="Vector" d="M48.7539 3.81299C47.5474 3.81299 46.5649 4.79541 46.5649 6.0022C46.5649 7.20898 47.5474 8.19092 48.7539 8.19092C49.9609 8.19092 50.9429 7.20923 50.9429 6.0022C50.9429 4.79517 49.9609 3.81299 48.7539 3.81299ZM48.7539 6.91992C48.2476 6.91992 47.8359 6.50854 47.8359 6.0022C47.8359 5.49585 48.2476 5.08374 48.7539 5.08374C49.2603 5.08374 49.6719 5.49585 49.6719 6.0022C49.6719 6.50854 49.2603 6.91992 48.7539 6.91992Z" fill="#1A2E35" fill-opacity="1.000000" fill-rule="nonzero"/>
		<path id="Vector" d="M42.5117 3.81299C41.3047 3.81299 40.3223 4.79541 40.3223 6.0022C40.3223 7.20898 41.3047 8.19092 42.5117 8.19092C43.7183 8.19092 44.7002 7.20923 44.7002 6.0022C44.7002 4.79517 43.7183 3.81299 42.5117 3.81299ZM42.5117 6.91992C42.0054 6.91992 41.5933 6.50854 41.5933 6.0022C41.5933 5.49585 42.0054 5.08374 42.5117 5.08374C43.0181 5.08374 43.4292 5.49585 43.4292 6.0022C43.4292 6.50854 43.0176 6.91992 42.5117 6.91992Z" fill="#1A2E35" fill-opacity="1.000000" fill-rule="nonzero"/>
		<path id="Vector" d="M19.0625 49.0605L5.0835 49.0605C4.73242 49.0605 4.44824 49.3447 4.44824 49.696C4.44824 50.0471 4.73242 50.3313 5.0835 50.3313L19.0625 50.3313C19.4141 50.3313 19.6982 50.0471 19.6982 49.696C19.6982 49.3447 19.4141 49.0605 19.0625 49.0605Z" fill="#1A2E35" fill-opacity="1.000000" fill-rule="nonzero"/>
		<path id="Vector" d="M19.0625 55.2812L5.0835 55.2812C4.73242 55.2812 4.44824 55.5654 4.44824 55.9165C4.44824 56.2678 4.73242 56.552 5.0835 56.552L19.0625 56.552C19.4141 56.552 19.6982 56.2678 19.6982 55.9165C19.6982 55.5654 19.4141 55.2812 19.0625 55.2812Z" fill="#1A2E35" fill-opacity="1.000000" fill-rule="nonzero"/>
		<path id="Vector" d="M19.0625 52.1709L5.0835 52.1709C4.73242 52.1709 4.44824 52.4551 4.44824 52.8062C4.44824 53.1575 4.73242 53.4417 5.0835 53.4417L19.0625 53.4417C19.4141 53.4417 19.6982 53.1575 19.6982 52.8062C19.6982 52.4551 19.4141 52.1709 19.0625 52.1709Z" fill="#1A2E35" fill-opacity="1.000000" fill-rule="nonzero"/>
		<path id="Vector" d="M37.4893 49.0605L23.5103 49.0605C23.1592 49.0605 22.875 49.3447 22.875 49.696C22.875 50.0471 23.1592 50.3313 23.5103 50.3313L37.4893 50.3313C37.8408 50.3313 38.125 50.0471 38.125 49.696C38.125 49.3447 37.8408 49.0605 37.4893 49.0605Z" fill="#1A2E35" fill-opacity="1.000000" fill-rule="nonzero"/>
		<path id="Vector" d="M37.4893 55.2812L23.5103 55.2812C23.1592 55.2812 22.875 55.5654 22.875 55.9165C22.875 56.2678 23.1592 56.552 23.5103 56.552L37.4893 56.552C37.8408 56.552 38.125 56.2678 38.125 55.9165C38.125 55.5654 37.8408 55.2812 37.4893 55.2812Z" fill="#1A2E35" fill-opacity="1.000000" fill-rule="nonzero"/>
		<path id="Vector" d="M37.4893 52.1709L23.5103 52.1709C23.1592 52.1709 22.875 52.4551 22.875 52.8062C22.875 53.1575 23.1592 53.4417 23.5103 53.4417L37.4893 53.4417C37.8408 53.4417 38.125 53.1575 38.125 52.8062C38.125 52.4551 37.8408 52.1709 37.4893 52.1709Z" fill="#1A2E35" fill-opacity="1.000000" fill-rule="nonzero"/>
		<path id="Vector" d="M55.916 49.0605L41.937 49.0605C41.5859 49.0605 41.3018 49.3447 41.3018 49.696C41.3018 50.0471 41.5859 50.3313 41.937 50.3313L55.916 50.3313C56.2676 50.3313 56.5518 50.0471 56.5518 49.696C56.5518 49.3447 56.2676 49.0605 55.916 49.0605Z" fill="#1A2E35" fill-opacity="1.000000" fill-rule="nonzero"/>
		<path id="Vector" d="M55.916 55.2812L41.937 55.2812C41.5859 55.2812 41.3018 55.5654 41.3018 55.9165C41.3018 56.2678 41.5859 56.552 41.937 56.552L55.916 56.552C56.2676 56.552 56.5518 56.2678 56.5518 55.9165C56.5518 55.5654 56.2676 55.2812 55.916 55.2812Z" fill="#1A2E35" fill-opacity="1.000000" fill-rule="nonzero"/>
		<path id="Vector" d="M55.916 52.1709L41.937 52.1709C41.5859 52.1709 41.3018 52.4551 41.3018 52.8062C41.3018 53.1575 41.5859 53.4417 41.937 53.4417L55.916 53.4417C56.2676 53.4417 56.5518 53.1575 56.5518 52.8062C56.5518 52.4551 56.2676 52.1709 55.916 52.1709Z" fill="#1A2E35" fill-opacity="1.000000" fill-rule="nonzero"/>
		<path id="Vector" d="M36.2188 33.9121L24.7812 33.9121C23.73 33.9121 22.875 34.7671 22.875 35.8184L22.875 43.9775C22.875 45.0288 23.73 45.8838 24.7812 45.8838L36.2188 45.8838C37.27 45.8838 38.125 45.0288 38.125 43.9775L38.125 35.8184C38.125 34.7671 37.27 33.9121 36.2188 33.9121ZM36.854 43.9775C36.854 44.3281 36.5693 44.613 36.2188 44.613L24.7812 44.613C24.4307 44.613 24.146 44.3281 24.146 43.9775L24.146 35.8184C24.146 35.4678 24.4307 35.1829 24.7812 35.1829L36.2188 35.1829C36.5693 35.1829 36.854 35.4678 36.854 35.8184L36.854 43.9775Z" fill="#1A2E35" fill-opacity="1.000000" fill-rule="nonzero"/>
		<path id="Vector" d="M17.792 33.9121L6.35449 33.9121C5.30322 33.9121 4.44824 34.7671 4.44824 35.8184L4.44824 43.9775C4.44824 45.0288 5.30322 45.8838 6.35449 45.8838L17.792 45.8838C18.8433 45.8838 19.6982 45.0288 19.6982 43.9775L19.6982 35.8184C19.6982 34.7671 18.8428 33.9121 17.792 33.9121ZM18.4272 43.9775C18.4272 44.3281 18.1426 44.613 17.792 44.613L6.35449 44.613C6.00391 44.613 5.71924 44.3281 5.71924 43.9775L5.71924 35.8184C5.71924 35.4678 6.00391 35.1829 6.35449 35.1829L17.792 35.1829C18.1426 35.1829 18.4272 35.4678 18.4272 35.8184L18.4272 43.9775Z" fill="#1A2E35" fill-opacity="1.000000" fill-rule="nonzero"/>
		<path id="Vector" d="M54.6455 33.9121L43.208 33.9121C42.1567 33.9121 41.3018 34.7671 41.3018 35.8184L41.3018 43.9775C41.3018 45.0288 42.1567 45.8838 43.208 45.8838L54.6455 45.8838C55.6968 45.8838 56.5518 45.0288 56.5518 43.9775L56.5518 35.8184C56.5518 34.7671 55.6968 33.9121 54.6455 33.9121ZM55.2808 43.9775C55.2808 44.3281 54.9961 44.613 54.6455 44.613L43.208 44.613C42.8574 44.613 42.5728 44.3281 42.5728 43.9775L42.5728 35.8184C42.5728 35.4678 42.8574 35.1829 43.208 35.1829L54.6455 35.1829C54.9961 35.1829 55.2808 35.4678 55.2808 35.8184L55.2808 43.9775Z" fill="#1A2E35" fill-opacity="1.000000" fill-rule="nonzero"/>
	</g>
</svg>
